<?xml version="1.0" encoding="UTF-8" standalone="no"?>
<!-- Created with Inkscape (http://www.inkscape.org/) -->

<svg
   width="2560"
   height="3000"
   viewBox="0 0 256 300"
   version="1.1"
   id="svg1"
   xml:space="preserve"
   inkscape:version="1.4.2 (ebf0e940d0, 2025-05-08)"
   sodipodi:docname="drawing.svg"
   inkscape:export-filename="combined.png"
   inkscape:export-xdpi="96"
   inkscape:export-ydpi="96"
   xmlns:inkscape="http://www.inkscape.org/namespaces/inkscape"
   xmlns:sodipodi="http://sodipodi.sourceforge.net/DTD/sodipodi-0.dtd"
   xmlns:xlink="http://www.w3.org/1999/xlink"
   xmlns="http://www.w3.org/2000/svg"
   xmlns:svg="http://www.w3.org/2000/svg"
   xmlns:rdf="http://www.w3.org/1999/02/22-rdf-syntax-ns#"
   xmlns:cc="http://creativecommons.org/ns#"
   xmlns:dc="http://purl.org/dc/elements/1.1/"><defs
     id="defs1"><marker
       style="overflow:visible"
       id="marker51"
       refX="0"
       refY="0"
       orient="auto-start-reverse"
       inkscape:stockid="Wide arrow"
       markerWidth="1"
       markerHeight="1"
       viewBox="0 0 1 1"
       inkscape:isstock="true"
       inkscape:collect="always"
       preserveAspectRatio="xMidYMid"><path
         style="fill:none;stroke:context-stroke;stroke-width:1;stroke-linecap:butt"
         d="M 3,-3 0,0 3,3"
         transform="rotate(180,0.125,0)"
         sodipodi:nodetypes="ccc"
         id="path51" /></marker><marker
       style="overflow:visible"
       id="ArrowWide"
       refX="0"
       refY="0"
       orient="auto-start-reverse"
       inkscape:stockid="Wide arrow"
       markerWidth="1"
       markerHeight="1"
       viewBox="0 0 1 1"
       inkscape:isstock="true"
       inkscape:collect="always"
       preserveAspectRatio="xMidYMid"><path
         style="fill:none;stroke:context-stroke;stroke-width:1;stroke-linecap:butt"
         d="M 3,-3 0,0 3,3"
         transform="rotate(180,0.125,0)"
         sodipodi:nodetypes="ccc"
         id="path1" /></marker><linearGradient
       id="linearGradient1"
       inkscape:collect="always"><stop
         style="stop-color:#ffffff;stop-opacity:1;"
         offset="0"
         id="stop1" /><stop
         style="stop-color:#ffffff;stop-opacity:1;"
         offset="0.88"
         id="stop3" /><stop
         style="stop-color:#808080;stop-opacity:1;"
         offset="0.89999998"
         id="stop4" /><stop
         style="stop-color:#404040;stop-opacity:1;"
         offset="0.92000002"
         id="stop5" /><stop
         style="stop-color:#202020;stop-opacity:1;"
         offset="0.94"
         id="stop6" /><stop
         style="stop-color:#000000;stop-opacity:1;"
         offset="0.95999998"
         id="stop2" /></linearGradient><clipPath
       clipPathUnits="userSpaceOnUse"
       id="clipPath35"><path
         id="path36"
         style="fill:#ff0000;fill-opacity:1;fill-rule:nonzero;stroke:none;stroke-width:0.1"
         d="m 12.977148,76.456641 v 4.466797 c 0.297167,-0.355418 0.645408,-0.660006 1.013086,-0.939649 0.413884,-0.311049 0.858292,-0.576675 1.31211,-0.824414 0.233615,-0.129775 0.474452,-0.246196 0.708008,-0.375977 0.164838,-0.096 0.325182,-0.199371 0.485937,-0.302148 0.182562,-0.123251 0.361491,-0.251548 0.543164,-0.376172 0.168953,-0.125184 0.340166,-0.247393 0.514063,-0.365625 0.148659,-0.100858 0.301743,-0.194687 0.450781,-0.294922 0.256878,-0.174952 0.51763,-0.342559 0.790234,-0.492187 0.314418,-0.164298 0.641171,-0.30276 0.974805,-0.422656 0.07614,-0.02843 0.153628,-0.05186 0.231836,-0.07305 z m 15.090821,0 c 0.206267,0.281812 0.339749,0.55953 0.422851,0.945507 0.101561,0.471687 0.05903,0.773787 -0.0252,1.217969 -0.05091,0.204596 -0.107448,0.407847 -0.189258,0.602735 -0.03238,0.07714 -0.07098,0.151573 -0.106445,0.227343 -0.145211,0.27731 -0.332905,0.524866 -0.536914,0.760547 -0.255811,0.292728 -0.561273,0.529209 -0.891992,0.73086 -0.220208,0.140682 -0.462826,0.240491 -0.705274,0.335351 -0.0472,0.01678 -0.0944,0.03361 -0.141601,0.05039 -1.035048,0.368028 -1.446288,0.233541 -1.517969,-0.171289 -0.391839,0.363183 -0.804706,0.703807 -1.204102,1.058203 -0.1103,0.08683 -0.216068,0.179757 -0.330859,0.260547 -0.149605,0.105295 -0.303218,0.20538 -0.461523,0.29707 -0.269201,0.155929 -0.569746,0.260783 -0.863477,0.358203 -2.293397,0.760606 -1.402297,-0.444784 -0.560742,-1.820703 -0.08237,0.05679 -0.164411,0.113992 -0.249414,0.166797 -0.140393,0.09387 -0.283014,0.184228 -0.424024,0.277148 -0.168265,0.114362 -0.331208,0.235858 -0.49707,0.353711 -0.225413,0.154628 -0.446702,0.315608 -0.676172,0.464258 -0.146966,0.09382 -0.293989,0.187655 -0.442773,0.278516 -0.0091,0.02477 -0.01846,0.04937 -0.02773,0.07402 -0.148993,0.396152 -0.39066,0.743343 -0.626758,1.090625 -0.275771,0.425336 -0.572126,0.836473 -0.880664,1.238477 -0.106126,0.146399 -0.235843,0.278748 -0.308593,0.446679 -0.01901,0.04388 -0.03083,0.0905 -0.04687,0.135547 -0.06099,0.419913 -0.08325,0.844734 -0.10625,1.268164 -0.02535,0.463145 -0.03523,0.928495 0.01172,1.390625 0.0171,0.168277 0.05391,0.42035 0.07695,0.586133 0.09738,0.614845 0.157108,1.234274 0.210938,1.854102 0.03307,0.433011 0.08231,0.864807 0.148828,1.293945 0.03018,0.216965 0.09838,0.424746 0.185156,0.625 0.04453,0.08476 0.07783,0.183346 0.137891,0.259766 l 2e-4,2e-4 2e-4,2e-4 2e-4,2e-4 h 2e-4 2e-4 v -2e-4 c 2e-4,-0.0029 -0.0028,-0.01464 -0.0023,-0.01816 l 2e-4,-2e-4 v -2e-4 -2e-4 l 8e-4,-2e-4 v -2e-4 h 2e-4 2e-4 2e-4 l 2e-4,2e-4 h 2e-4 l 2e-4,2e-4 c 0.02095,0.01683 0.03514,0.04064 0.05273,0.06094 0.02866,0.03306 0.05727,0.06617 0.08594,0.09922 0.133437,0.146102 0.262281,0.297309 0.404883,0.434765 0.03119,0.03003 0.04342,0.04713 0.04687,0.04902 l 2e-4,2e-4 h 2e-4 2e-4 2e-4 l 2e-4,-2e-4 v -2e-4 -2e-4 c 10e-5,-0.0017 -7e-4,-0.0062 -0.0023,-0.01309 0.01429,0.004 0.03376,0.01893 0.05156,0.0334 0.0035,5e-4 0.0074,0.001 0.01211,0.0018 0.02299,0.0036 0.04249,0.01834 0.06387,0.02754 0.211987,0.09072 0.432671,0.158217 0.650781,0.232227 0.469896,0.154965 0.908557,0.381181 1.330664,0.636523 0.450906,0.278906 0.845381,0.633783 1.222852,1.003125 0.190973,0.171313 0.346261,0.383903 0.552148,0.538282 0.08219,0.06416 0.164229,0.132785 0.261719,0.168945 0.0093,0.0044 0.01867,0.0087 0.02793,0.01328 -0.0054,-0.003 -0.0098,-0.006 -0.01055,-0.008 v -2e-4 -2e-4 -2e-4 -2e-4 -2e-4 -2e-4 l 4e-4,-2e-4 4e-4,-2e-4 v -2e-4 h 2e-4 l 2e-4,-2e-4 2e-4,-2e-4 h 2e-4 c 10e-5,-3.2e-5 4e-4,-2e-4 6e-4,-2e-4 h 2e-4 c 0.01621,-0.0045 0.261168,0.06932 0.308008,0.08086 0.199258,0.04562 0.402706,0.06866 0.604688,0.09844 1.004007,0.148033 1.764196,0.479288 2.293945,0.903125 -0.0818,-0.231279 -0.397839,-0.47936 -1.045117,-0.750585 -0.104967,-0.04398 -0.208732,-0.09089 -0.314844,-0.132032 -0.03869,-0.015 -0.08223,-0.01736 -0.11914,-0.03633 -0.0013,-7e-4 -0.0022,-0.0015 -0.0027,-0.002 l -2e-4,-2e-4 v -2e-4 h -2e-4 v -2e-4 -2e-4 -2e-4 h 2e-4 v -2e-4 h 2e-4 2e-4 c 0.0062,-0.0014 0.04416,0.0055 0.05918,0.0068 0.167607,0.01493 0.335037,0.02884 0.50293,0.04043 0.290055,0.0178 0.580421,0.03105 0.870898,0.03945 0.306226,0.0043 0.610301,0.04403 0.914258,0.07793 0.08729,0.0098 0.17515,0.01451 0.262891,0.01797 0.02384,-0.005 0.106253,-0.0131 0.160351,-0.01836 0.166214,-0.114389 0.340941,-0.217295 0.524414,-0.301367 0.08987,-0.04118 0.18334,-0.07392 0.275,-0.110938 0.05036,-0.01785 0.08283,-0.02943 0.102344,-0.03633 -0.02531,0.0089 -0.06072,0.02132 -0.06094,0.02109 -0.0012,-0.0013 -0.0018,-0.0025 -0.0022,-0.0035 -2.4e-5,-2e-4 -2.3e-5,-8e-4 0,-0.001 v -2e-4 l 2e-4,-2e-4 v -2e-4 -2e-4 -2e-4 -2e-4 h 2e-4 c 0.0037,-0.0054 0.02291,-0.0079 0.03789,-0.01113 0.05578,-0.02613 0.151773,-0.06562 0.189063,-0.08145 0.103484,-0.05675 0.224717,-0.07873 0.327344,-0.136719 0.155168,-0.07901 0.323642,-0.128229 0.480664,-0.202539 0.251931,-0.103646 0.508486,-0.195404 0.762695,-0.293164 0.137291,-0.04814 0.274287,-0.09652 0.409961,-0.148438 -1.060297,-1.452151 0.03294,-3.60569 3.242383,-3.563086 0.02995,4e-4 0.06008,8e-4 0.09004,0.0012 0.227022,0.0043 0.454327,0.01204 0.679492,0.04375 0.53681,0.08796 1.070691,0.272202 1.476367,0.653711 0.162051,0.152398 0.293103,0.33459 0.439649,0.501953 0.181654,0.311388 0.263256,0.41515 0.364257,0.816993 0.151411,0.602402 0.07447,1.22909 -0.188671,1.786718 -0.181983,0.348632 -0.401521,0.676732 -0.705469,0.932617 -0.02773,0.02347 -0.05547,0.04684 -0.0832,0.07031 -0.05863,0.188246 -0.127449,0.373067 -0.219141,0.548633 -0.136646,0.248332 -0.284468,0.488918 -0.459961,0.712109 -0.225659,0.286239 -0.471296,0.554987 -0.762109,0.777149 -0.227174,0.176818 -0.431215,0.385242 -0.682227,0.530664 -0.294483,0.188436 -0.59877,0.361097 -0.920703,0.498828 -0.308265,0.13481 -0.62029,0.260405 -0.939648,0.366804 -0.113792,0.0437 -0.231087,0.0894 -0.34668,0.13242 h 5.997461 V 76.456641 Z m 3.909961,16.422851 c -0.01492,0.01198 -0.03523,0.0284 -0.04531,0.03652 -0.0027,0.0023 -0.0049,0.0051 -0.0076,0.0074 0.01431,-0.01134 0.03592,-0.02986 0.05293,-0.04395 z m -13.882422,0.89043 c 0.01485,0.01208 0.02715,0.02139 0.03223,0.01992 h 2e-4 2e-4 2e-4 v -2e-4 h 2e-4 l 2e-4,-2e-4 2e-4,-2e-4 2e-4,-2e-4 2e-4,-2e-4 c 4.3e-5,-6.8e-5 2e-4,-3e-4 2e-4,-4e-4 l 2e-4,-2e-4 v -2e-4 -2e-4 c 0,-8.2e-5 1.2e-5,-5e-4 0,-6e-4 v -2e-4 c -0.0017,-0.0046 -0.01826,-0.01135 -0.03418,-0.01719 z m -5.11836,1.287695 v 5.141213 h 6.180274 c -0.112139,-0.0796 -0.221309,-0.16368 -0.326563,-0.253127 -0.307357,-0.257271 -0.594039,-0.534901 -0.870703,-0.824805 -0.115389,-0.114312 -0.230317,-0.231084 -0.360351,-0.32871 -0.111629,-0.07208 -0.22295,-0.138098 -0.351758,-0.176758 -0.364237,-0.123839 -0.730926,-0.24275 -1.081836,-0.401953 -0.19737,-0.09012 -0.278963,-0.123667 -0.482227,-0.236329 -0.273698,-0.151702 -0.525946,-0.337809 -0.770507,-0.532031 -0.376207,-0.325241 -0.717787,-0.677905 -1.039844,-1.057031 -0.153068,-0.182999 -0.276712,-0.324 -0.416016,-0.521094 -0.181779,-0.257187 -0.341775,-0.52771 -0.480469,-0.809375 z m 22.161133,1.276172 c -0.0084,0.03099 -0.01679,0.06203 -0.02539,0.09297 0.0134,-0.0281 0.02927,-0.05785 0.03047,-0.06289 v -2e-4 -2e-4 -2e-4 h -2e-4 -2e-4 c -0.0014,0.0011 -0.0059,0.0072 -0.01445,0.01992 -0.007,0.01062 -0.0085,0.02409 -0.0127,0.03613 0.0075,-0.02854 0.03016,-0.114041 0.02246,-0.08555 z m -0.02285,0.113477 c -9e-4,7e-4 -0.0032,0.0034 -0.0068,0.008 -0.0034,0.0082 -0.0068,0.01593 -0.0096,0.02051 v 2e-4 2e-4 c -2e-5,1e-4 -2e-4,5e-4 -2e-4,6e-4 -8e-6,1e-4 2.5e-5,3e-4 0,4e-4 0.0094,-0.01525 0.01649,-0.02719 0.01699,-0.02949 v -2e-4 -2e-4 h -2e-4 z m -8.246094,0.217968 c -0.0045,3e-4 -0.02268,0.0026 -0.02988,0.0041 -0.0052,0.0011 -0.01014,0.0021 -0.01484,0.0031 0.0243,-0.0038 0.04301,-0.0065 0.04375,-0.0066 9e-4,-2e-4 0.0015,-3e-4 0.0018,-4e-4 h 2e-4 v -2e-4 h -2e-4 -2e-4 c -10e-5,-2e-6 -4e-4,-1.1e-5 -6e-4,0 z m -0.08652,2e-4 c -0.0036,3e-4 -0.03249,0.0115 -0.04336,0.01621 -0.0065,0.0028 -0.01245,0.0055 -0.01797,0.008 0.0012,-2e-4 0.0025,-5e-4 0.0039,-8e-4 0.0097,-0.0035 0.01945,-0.0069 0.0291,-0.01055 0.0089,-0.0034 0.01787,-0.0065 0.02617,-0.01113 9e-4,-5e-4 0.0015,-9e-4 0.0019,-0.0012 h 2e-4 l 2e-4,-2e-4 2e-4,-2e-4 v -2e-4 h -2e-4 z m -0.06621,0.02656 v 2e-4 h 2e-4 l 2e-4,-2e-4 c -10e-5,-10e-7 -3e-4,-4e-6 -4e-4,0 z" /></clipPath><clipPath
       clipPathUnits="userSpaceOnUse"
       id="clipPath45"><path
         id="path46"
         style="fill:#ff0000;fill-opacity:1;fill-rule:nonzero;stroke:none;stroke-width:0.1"
         d="M 190.00742,114.69805 176.2377,114.7 v 12.87637 c 0.03,-0.004 0.0602,-0.008 0.0904,-0.0107 0.2582,-0.0309 0.51836,-0.0588 0.77813,-0.0488 0.0866,0.003 0.17314,0.011 0.25957,0.024 0.31047,0.0406 0.59965,0.0989 0.87637,0.19941 0.26932,0.116 0.4195,0.16416 0.66582,0.3504 0.4219,0.31899 0.73487,0.71868 0.93496,1.208 0.11316,0.31608 0.20348,0.63897 0.22988,0.97539 0.021,0.28094 0.0252,0.56325 -0.01,0.84336 -0.002,0.017 -0.004,0.034 -0.006,0.051 -0.001,0.006 -0.001,0.0109 -0.002,0.0158 10e-4,0.0582 0.002,0.11625 0.003,0.17441 0,0.0214 -0.001,0.0354 0.008,0.0953 0.0256,0.22025 0.0368,0.44184 0.0258,0.66328 0.82808,0.43808 1.40715,0.95487 1.7709,1.48574 3.30789,-0.71028 4.69322,2.81174 0.93418,4.76816 -0.0575,0.0299 -0.1147,0.0603 -0.17188,0.0908 0.29127,0.24159 0.58711,0.47727 0.88497,0.71055 0.0364,0.0119 0.0727,0.0236 0.10918,0.0353 0.39418,0.1295 0.79155,0.24805 1.19531,0.34375 0.40705,0.0977 0.81539,0.19015 1.22304,0.28535 0.423,0.10684 0.83972,0.23735 1.26309,0.34258 0.38231,0.0943 0.77103,0.15964 1.16113,0.21153 0.47718,0.0455 0.95503,0.0811 1.43164,0.1332 0.44241,0.0549 0.88606,0.0977 1.33028,0.13457 0.60973,0.0449 1.22137,0.0534 1.83242,0.0637 0.58727,0.001 1.17525,0.0307 1.76211,0 0.53004,-0.027 1.05098,-0.1329 1.56816,-0.2457 0.35504,-0.0806 0.71125,-0.16004 1.05742,-0.27403 0.1912,-0.0629 0.13346,-0.0346 0.24297,-0.0975 0.0216,-0.0134 0.0449,-0.0246 0.065,-0.0402 0.006,-0.005 0.006,-0.0145 0.0117,-0.0195 0.0561,-0.0523 0.12069,-0.0948 0.17949,-0.14414 0.0979,-0.0821 0.0953,-0.083 0.18028,-0.16895 0.34525,-0.349 0.69385,-0.69454 1.03105,-1.05137 0.29588,-0.33576 0.59067,-0.67478 0.85703,-1.03476 0.15459,-0.19188 0.26811,-0.40978 0.38438,-0.62559 0.18536,-0.38757 0.35988,-0.78035 0.53945,-1.1707 0.21216,-0.46033 0.40244,-0.92975 0.5916,-1.3998 0.14085,-0.36585 0.25953,-0.73994 0.37949,-1.11309 0.14257,-0.4395 0.32182,-0.86666 0.46016,-1.30742 0.12379,-0.37735 0.22219,-0.75008 0.28379,-1.14199 0.0595,-0.4242 0.075,-0.85288 0.0898,-1.28047 0.0174,-0.39669 0.003,-0.79386 -0.0217,-1.18985 -0.005,-0.0815 -0.007,-0.16323 -0.0148,-0.24453 -0.004,-0.0378 -0.0139,-0.0748 -0.0199,-0.1123 -0.0516,-0.30741 -0.0197,-0.14604 -0.0836,-0.46192 -0.0463,-0.22876 -0.082,-0.39515 -0.13066,-0.62597 -0.14087,-0.59889 -0.29906,-1.19316 -0.46758,-1.78477 -0.10172,-0.36015 -0.18845,-0.72803 -0.34082,-1.07109 -0.0795,-0.18469 -0.17817,-0.35999 -0.28828,-0.52793 l -0.002,10e-4 c 0.007,0.01 0.0115,0.0173 0.0117,0.0207 0,1e-5 -10e-4,0 -10e-4,0 -9e-5,1e-5 4e-5,1e-5 -0.001,0 -0.002,0 -0.005,-0.001 -0.01,-0.004 -0.0229,-0.0145 -0.0443,-0.0315 -0.0664,-0.0471 -0.31137,-0.21215 -0.63396,-0.40721 -0.95098,-0.61075 -0.42219,-0.26546 -0.80354,-0.58553 -1.17031,-0.92168 -0.29171,-0.26702 -0.56669,-0.55098 -0.84043,-0.83613 -0.16334,-0.16756 -0.31638,-0.34968 -0.51367,-0.47891 -0.27957,-0.17677 -0.57129,-0.33262 -0.86856,-0.47734 -0.0978,-0.0426 -0.19579,-0.0851 -0.29375,-0.12734 -0.28965,0.38065 -0.69642,0.0687 -1.15059,-0.49063 -0.23963,-0.10089 -0.47845,-0.20355 -0.7166,-0.30781 -0.12392,-0.0583 -0.25131,-0.10733 -0.37968,-0.15391 -0.13183,0.0661 -0.22724,0.0946 -0.42832,0.16797 -0.40902,0.12517 -0.75395,0.1493 -1.18594,0.1332 -0.0731,-0.003 -0.14537,-0.0181 -0.21797,-0.0271 -0.20715,-0.0403 -0.41386,-0.0834 -0.61914,-0.13243 -0.46534,-0.12073 -0.87532,-0.32832 -1.24649,-0.63906 -0.27168,-0.22746 -0.35631,-0.3828 -0.55039,-0.65996 -0.15704,-0.26107 -0.26171,-0.54599 -0.35351,-0.83457 -0.11945,-0.37539 -0.14842,-0.76556 -0.13262,-1.15684 0.008,-0.22413 0.0554,-0.44193 0.10918,-0.65878 0.0105,-0.0421 0.0249,-0.0833 0.0373,-0.125 0.011,-0.0377 0.0129,-0.0442 0.005,-0.0199 0.0398,-0.17438 0.0977,-0.34274 0.17109,-0.5039 z m 8.33457,0.002 c 0.15665,0.3824 0.0156,0.59947 -0.30195,0.71738 0.35588,0.15179 0.71174,0.30359 1.06328,0.46504 0.55824,0.27673 1.10861,0.57351 1.61758,0.93477 0.0871,0.0662 0.17602,0.13033 0.26152,0.19863 0.3096,0.24712 0.58923,0.52841 0.86055,0.81621 0.20421,0.21277 0.4077,0.42617 0.62539,0.62539 0.15984,0.14807 0.31979,0.29563 0.50684,0.40977 0.43492,0.27943 0.88074,0.54326 1.29511,0.85332 0.19941,0.15725 0.3354,0.2559 0.51758,0.43359 0.25495,0.24866 0.47572,0.52598 0.67305,0.82188 0.25535,0.40356 0.48864,0.82115 0.67344,1.2623 0.0195,0.0475 0.0387,0.0951 0.0576,0.14277 V 114.7 Z m 7.85,21.12324 c -0.0524,0.14723 -0.10681,0.29372 -0.16426,0.43906 -0.21856,0.54293 -0.44017,1.08449 -0.68515,1.61622 -0.22309,0.48478 -0.43558,0.97493 -0.67891,1.45 -0.23132,0.42695 -0.47455,0.84821 -0.77344,1.23242 -0.38146,0.50394 -0.78699,0.99002 -1.21308,1.45683 -0.39675,0.41837 -0.80426,0.82629 -1.2127,1.23321 -0.0912,0.085 -0.18043,0.17227 -0.27363,0.25507 -0.47567,0.42275 -1.00482,0.78961 -1.58379,1.05586 -0.0735,0.0302 -0.14662,0.0615 -0.21992,0.0922 h 6.80488 z m -29.95429,3.07266 v 5.7582 h 6.40039 c -0.0214,-0.0169 -0.0427,-0.0338 -0.0641,-0.0508 -0.75285,-0.59992 0.0702,0.0504 -0.78828,-0.62559 -0.2349,-0.18168 -0.47007,-0.36279 -0.70488,-0.54453 -0.0949,-0.0429 -0.18902,-0.0881 -0.28184,-0.13593 -0.5207,-0.26064 -1.02993,-0.54214 -1.51308,-0.86836 -0.30978,-0.20588 -0.61608,-0.41427 -0.90899,-0.64395 -0.19614,-0.1538 -0.43796,-0.34904 -0.6084,-0.52969 -0.12297,-0.13034 -0.2323,-0.27311 -0.34843,-0.40957 -0.10258,-0.1729 -0.22982,-0.33316 -0.30762,-0.51855 -0.0895,-0.2134 -0.16429,-0.43466 -0.21582,-0.66055 -0.22797,-0.24943 -0.44792,-0.50608 -0.65898,-0.7707 z m 6.24316,5.04394 c 0.0447,0.19679 0.12969,0.43285 0.26133,0.71426 h 2.51523 c -0.1083,-0.0303 -0.21654,-0.0606 -0.3248,-0.091 -0.41937,-0.0979 -0.83928,-0.19311 -1.25801,-0.29375 -0.40124,-0.0979 -0.79938,-0.20727 -1.19375,-0.3295 z" /></clipPath><linearGradient
       inkscape:collect="always"
       xlink:href="#linearGradient1"
       id="linearGradient3"
       gradientUnits="userSpaceOnUse"
       gradientTransform="matrix(25.983862,0,0,0.99880349,-6393.9492,7.9262229)"
       x1="246"
       y1="70"
       x2="256"
       y2="70" /></defs><sodipodi:namedview
     id="base"
     pagecolor="#ffffff"
     bordercolor="#000000"
     borderopacity="0.3"
     inkscape:pageopacity="0.0"
     inkscape:pageshadow="2"
     inkscape:zoom="0.4275"
     inkscape:cx="2000"
     inkscape:cy="1216.3743"
     inkscape:document-units="mm"
     inkscape:showpageshadow="2"
     inkscape:pagecheckerboard="0"
     inkscape:deskcolor="#d1d1d1"
     inkscape:window-width="2560"
     inkscape:window-height="1403"
     inkscape:window-x="0"
     inkscape:window-y="0"
     inkscape:window-maximized="1"
     inkscape:current-layer="svg1"
     inkscape:export-bgcolor="#ffffffff" /><metadata
     id="metadata1"><rdf:RDF><cc:Work
         rdf:about=""><dc:format>image/svg+xml</dc:format><dc:type
           rdf:resource="http://purl.org/dc/dcmitype/StillImage" /></cc:Work></rdf:RDF></metadata><image
     width="256"
     height="165.39999"
     preserveAspectRatio="none"
     xlink:href="finite-size.png"
     id="image1"
     x="0"
     y="137"
     inkscape:label="image_graph" /><image
     width="256"
     height="120.4"
     preserveAspectRatio="none"
     xlink:href="render_cropped.png"
     id="image1-3"
     x="0"
     y="8"
     inkscape:label="image_render"
     mask="none" /><rect
     style="opacity:0;fill:url(#linearGradient3);fill-opacity:1;stroke:#000000;stroke-width:0;stroke-dasharray:none;stroke-opacity:0"
     id="rect2"
     width="256"
     height="139.68494"
     x="4.2973425e-09"
     y="8"
     mask="none" /><g
     id="g8"
     inkscape:label="drawing"
     transform="translate(0,-10.299985)"><path
       style="fill:#ffffff;fill-opacity:0;stroke:#005a00;stroke-width:3;stroke-linecap:round;stroke-dasharray:none;stroke-opacity:1"
       d="m 0.89224434,80.457465 5.01029516,1.509952 5.0789295,1.921757 5.216197,1.715855 5.284832,1.509952 5.422101,2.264928 5.628002,2.059025 5.628003,3.088538 5.902539,2.333562 5.971174,1.64722 6.108442,1.784486 6.177076,2.19629 6.588882,2.12766 6.451613,1.78449 6.794783,1.78449 6.932053,2.05903 7.06932,2.26492 7.275224,1.16679 7.13795,1.30404 7.96157,0.89225 7.89293,1.78449 8.2361,1.85312 8.16747,2.26493 8.78517,1.99039 8.71654,1.64722 9.05972,1.57859 9.47151,1.57858 9.54015,0.41181 10.02059,2.47083 10.36377,2.88263 10.70693,2.47083 10.91283,2.47083"
       id="path7"
       inkscape:label="outer_graphene" /><path
       style="fill:#ffffff;fill-opacity:0;stroke:#005a00;stroke-width:3;stroke-linecap:round;stroke-dasharray:none;stroke-opacity:1"
       d="m 24.945291,88.133556 4.950233,-13.103557 5.144359,-10.968163 4.561979,-7.862134 3.785472,-4.464916 5.137031,-4.891958 5.113247,-4.735759 4.392587,-3.122855 4.495539,-2.676733 4.667124,-2.264928 4.221002,-1.441318 4.529856,-1.201098 3.466026,-0.720659 2.95127,-0.480439 2.916953,-0.308854 h 2.848318 l 3.363075,0.205903 4.529856,0.343171 4.255322,0.480439 3.74056,0.617708 3.46603,0.82361 3.94646,1.235415 3.22581,1.304049 3.87783,1.578587 3.87783,1.64722 3.36307,1.681537 3.19149,1.475635 3.91215,2.470831 4.70144,3.122855 3.63762,2.608099 3.94646,3.191489 4.52986,3.843514 4.39258,3.603295 3.98079,3.740562 2.53946,2.573782 3.43171,3.877831 2.95127,3.534661 2.6081,3.122855 2.23061,3.088538 2.16198,3.088538 1.99039,3.191489 2.16197,3.740563 2.53947,4.083734 2.33356,4.255319 2.02471,4.186686 2.43651,5.52505 1.54427,3.70625 1.02951,4.4269 1.33837,13.10913"
       id="path8"
       inkscape:label="outer_droplet" /><circle
       style="fill:#ffffff;fill-opacity:0;stroke:#005a00;stroke-width:3;stroke-linecap:round;stroke-dasharray:none;stroke-opacity:1"
       id="path10"
       cx="24.848227"
       cy="88.327682"
       r="10.8711"
       clip-path="url(#clipPath35)"
       inkscape:label="outer_left_angle" /><circle
       style="fill:#ffffff;fill-opacity:0;stroke:#005a00;stroke-width:3;stroke-linecap:round;stroke-dasharray:none;stroke-opacity:1"
       id="circle10"
       cx="191.21487"
       cy="129.67668"
       r="13.977129"
       clip-path="url(#clipPath45)"
       inkscape:label="outer_right_angle" /><path
       style="fill:#ffffff;fill-opacity:0;stroke:#00b400;stroke-width:1.2;stroke-linecap:round;stroke-dasharray:none;stroke-opacity:1"
       d="m 0.89224434,80.457465 5.01029516,1.509952 5.0789295,1.921757 5.216197,1.715855 5.284832,1.509952 5.422101,2.264928 5.628002,2.059025 5.628003,3.088538 5.902539,2.333562 5.971174,1.64722 6.108442,1.784486 6.177076,2.19629 6.588882,2.12766 6.451613,1.78449 6.794783,1.78449 6.932053,2.05903 7.06932,2.26492 7.275224,1.16679 7.13795,1.30404 7.96157,0.89225 7.89293,1.78449 8.2361,1.85312 8.16747,2.26493 8.78517,1.99039 8.71654,1.64722 9.05972,1.57859 9.47151,1.57858 9.54015,0.41181 10.02059,2.47083 10.36377,2.88263 10.70693,2.47083 10.91283,2.47083"
       id="path47"
       inkscape:label="inner_graphene" /><path
       style="fill:#ffffff;fill-opacity:0;stroke:#00b400;stroke-width:1.2;stroke-linecap:round;stroke-dasharray:none;stroke-opacity:1"
       d="m 24.945291,88.133556 4.950233,-13.103557 5.144359,-10.968163 4.561979,-7.862134 3.785472,-4.464916 5.137031,-4.891958 5.113247,-4.735759 4.392587,-3.122855 4.495539,-2.676733 4.667124,-2.264928 4.221002,-1.441318 4.529856,-1.201098 3.466026,-0.720659 2.95127,-0.480439 2.916953,-0.308854 h 2.848318 l 3.363075,0.205903 4.529856,0.343171 4.255322,0.480439 3.74056,0.617708 3.46603,0.82361 3.94646,1.235415 3.22581,1.304049 3.87783,1.578587 3.87783,1.64722 3.36307,1.681537 3.19149,1.475635 3.91215,2.470831 4.70144,3.122855 3.63762,2.608099 3.94646,3.191489 4.52986,3.843514 4.39258,3.603295 3.98079,3.740562 2.53946,2.573782 3.43171,3.877831 2.95127,3.534661 2.6081,3.122855 2.23061,3.088538 2.16198,3.088538 1.99039,3.191489 2.16197,3.740563 2.53947,4.083734 2.33356,4.255319 2.02471,4.186686 2.43651,5.52505 1.54427,3.70625 1.02951,4.4269 1.33837,13.10913"
       id="path48"
       inkscape:label="inner_droplet" /><circle
       style="fill:#ffffff;fill-opacity:0;stroke:#00b400;stroke-width:1.2;stroke-linecap:round;stroke-dasharray:none;stroke-opacity:1"
       id="circle48"
       cx="24.848227"
       cy="88.327682"
       r="10.8711"
       clip-path="url(#clipPath35)"
       inkscape:label="inner_left_angle" /><circle
       style="fill:#ffffff;fill-opacity:0;stroke:#00b400;stroke-width:1.2;stroke-linecap:round;stroke-dasharray:none;stroke-opacity:1"
       id="circle49"
       cx="191.21487"
       cy="129.67668"
       r="13.977129"
       clip-path="url(#clipPath45)"
       inkscape:label="inner_right_angle" /><path
       style="fill:#ffffff;fill-opacity:0;stroke:#00b400;stroke-width:1.2;stroke-linecap:round;stroke-dasharray:none;stroke-opacity:1"
       d="m 177.42308,127.30769 -0.11539,0.80769 v 0"
       id="path49"
       inkscape:label="inner_repair_patch" /><path
       style="fill:#00b400;fill-opacity:1;stroke:#00b400;stroke-width:1;stroke-linecap:round;stroke-dasharray:none;stroke-opacity:0.999977;marker-start:url(#ArrowWide);marker-end:url(#marker51)"
       d="m 18.461538,107.38461 69.846154,21.23078"
       id="path50"
       inkscape:label="arrows" /><text
       xml:space="preserve"
       style="font-style:oblique;font-variant:normal;font-weight:normal;font-stretch:normal;font-size:8.53333px;font-family:'DejaVu Sans';-inkscape-font-specification:'DejaVu Sans Oblique';text-align:center;writing-mode:lr-tb;direction:ltr;text-anchor:middle;fill:#00b400;fill-opacity:1;stroke:#000000;stroke-width:0;stroke-linecap:round;stroke-dasharray:none;stroke-opacity:0"
       x="26.153849"
       y="99.384613"
       id="text49"
       inkscape:label="label_left"><tspan
         sodipodi:role="line"
         id="tspan49"
         style="font-style:oblique;font-variant:normal;font-weight:normal;font-stretch:normal;font-size:8.53333px;font-family:'DejaVu Sans';-inkscape-font-specification:'DejaVu Sans Oblique';fill:#00b400;fill-opacity:1;stroke:#000000;stroke-width:0;stroke-dasharray:none;stroke-opacity:0"
         x="26.153849"
         y="99.384613">θ</tspan></text><text
       xml:space="preserve"
       style="font-style:oblique;font-variant:normal;font-weight:normal;font-stretch:normal;font-size:8.53333px;font-family:'DejaVu Sans';-inkscape-font-specification:'DejaVu Sans Oblique';text-align:center;writing-mode:lr-tb;direction:ltr;text-anchor:middle;fill:#00b400;fill-opacity:1;stroke:#000000;stroke-width:0;stroke-linecap:round;stroke-dasharray:none;stroke-opacity:0"
       x="183.07692"
       y="138.15384"
       id="text50"
       inkscape:label="label_right"><tspan
         sodipodi:role="line"
         id="tspan50"
         style="font-style:oblique;font-variant:normal;font-weight:normal;font-stretch:normal;font-size:8.53333px;font-family:'DejaVu Sans';-inkscape-font-specification:'DejaVu Sans Oblique';fill:#00b400;fill-opacity:1;stroke:#000000;stroke-width:0;stroke-dasharray:none;stroke-opacity:0"
         x="183.07692"
         y="138.15384">θ</tspan></text><text
       xml:space="preserve"
       style="font-style:oblique;font-variant:normal;font-weight:normal;font-stretch:normal;font-size:8.53333px;font-family:'DejaVu Sans';-inkscape-font-specification:'DejaVu Sans Oblique';text-align:center;writing-mode:lr-tb;direction:ltr;text-anchor:middle;fill:#00b400;fill-opacity:1;stroke:#00b400;stroke-width:0;stroke-linecap:round;stroke-dasharray:none;stroke-opacity:0.999977"
       x="48.307693"
       y="125.23077"
       id="text52"
       inkscape:label="label_arrow"><tspan
         sodipodi:role="line"
         id="tspan52"
         style="stroke-width:0;stroke-dasharray:none"
         x="48.307693"
         y="125.23077">a</tspan></text></g><text
     xml:space="preserve"
     style="font-style:oblique;font-variant:normal;font-weight:normal;font-stretch:normal;font-size:8.53333px;font-family:'DejaVu Sans';-inkscape-font-specification:'DejaVu Sans Oblique';text-align:center;writing-mode:lr-tb;direction:ltr;text-anchor:middle;fill:#000000;fill-opacity:1;stroke:#00b400;stroke-width:0;stroke-linecap:round;stroke-dasharray:none;stroke-opacity:0.999977"
     x="8.101202"
     y="136.48534"
     id="text54"
     inkscape:label="(b)"><tspan
       sodipodi:role="line"
       id="tspan54"
       style="font-style:normal;font-variant:normal;font-weight:bold;font-stretch:normal;font-family:'DejaVu Sans';-inkscape-font-specification:'DejaVu Sans Bold';fill:#000000;fill-opacity:1;stroke-width:0;stroke-dasharray:none"
       x="8.101202"
       y="136.48534">b)</tspan></text><text
     xml:space="preserve"
     style="font-style:oblique;font-variant:normal;font-weight:normal;font-stretch:normal;font-size:8.53333px;font-family:'DejaVu Sans';-inkscape-font-specification:'DejaVu Sans Oblique';text-align:center;writing-mode:lr-tb;direction:ltr;text-anchor:middle;fill:#000000;fill-opacity:1;stroke:#00b400;stroke-width:0;stroke-linecap:round;stroke-dasharray:none;stroke-opacity:0.999977"
     x="8.2420254"
     y="6.0928035"
     id="text53"
     inkscape:label="(a)"><tspan
       sodipodi:role="line"
       id="tspan53"
       style="font-style:normal;font-variant:normal;font-weight:bold;font-stretch:normal;font-family:'DejaVu Sans';-inkscape-font-specification:'DejaVu Sans Bold';fill:#000000;fill-opacity:1;stroke-width:0;stroke-dasharray:none"
       x="8.2420254"
       y="6.0928035">a)</tspan></text></svg>
